<svg xmlns="http://www.w3.org/2000/svg" viewBox="0 0 300 80">
  <!-- Background -->
  <rect width="300" height="80" fill="transparent"/>

  <!-- Cottage Icon -->
  <g transform="translate(10, 10)">
    <!-- Water waves -->
    <path d="M5 50 Q15 45 25 50 Q35 55 45 50 Q55 45 60 50"
          fill="none" stroke="#5B7B6F" stroke-width="2.5" stroke-linecap="round"/>
    <path d="M5 56 Q15 51 25 56 Q35 61 45 56 Q55 51 60 56"
          fill="none" stroke="#5B7B6F" stroke-width="2" stroke-linecap="round" opacity="0.5"/>

    <!-- Cottage -->
    <path d="M15 45 L35 25 L55 45 Z" fill="#C4956A"/>
    <rect x="20" y="35" width="30" height="15" fill="#C4956A"/>

    <!-- Roof outline -->
    <path d="M13 45 L35 22 L57 45" fill="none" stroke="#8B6914" stroke-width="2" stroke-linecap="round" stroke-linejoin="round"/>

    <!-- Door and windows -->
    <rect x="31" y="38" width="8" height="12" fill="#F5F0E8" rx="1"/>
    <rect x="22" y="38" width="6" height="6" fill="#F5F0E8" rx="0.5"/>
    <rect x="42" y="38" width="6" height="6" fill="#F5F0E8" rx="0.5"/>

    <!-- Sun -->
    <circle cx="52" cy="18" r="7" fill="#C4956A" opacity="0.9"/>
  </g>

  <!-- Text: Pearl Beach -->
  <text x="80" y="38" font-family="Georgia, 'Times New Roman', serif" font-size="26" font-weight="bold" fill="#3D5A4C">
    Pearl Beach
  </text>

  <!-- Text: Cottages -->
  <text x="80" y="60" font-family="Georgia, 'Times New Roman', serif" font-size="18" fill="#5B7B6F">
    Cottages
  </text>

  <!-- Tagline -->
  <text x="220" y="60" font-family="'Source Sans Pro', Arial, sans-serif" font-size="10" fill="#8B6914" letter-spacing="1">
    LAKE ERIE
  </text>
</svg>
