<svg xmlns="http://www.w3.org/2000/svg" viewBox="0 0 100 100">
  <!-- Background circle with warm cream color -->
  <circle cx="50" cy="50" r="48" fill="#F5F0E8"/>

  <!-- Water waves (Lake Erie) -->
  <path d="M15 60 Q25 55 35 60 Q45 65 55 60 Q65 55 75 60 Q85 65 85 60"
        fill="none" stroke="#5B7B6F" stroke-width="3" stroke-linecap="round"/>
  <path d="M15 68 Q25 63 35 68 Q45 73 55 68 Q65 63 75 68 Q85 73 85 68"
        fill="none" stroke="#5B7B6F" stroke-width="3" stroke-linecap="round" opacity="0.6"/>

  <!-- Cottage/House shape -->
  <path d="M30 55 L50 35 L70 55 L70 55 L30 55 Z" fill="#C4956A"/>
  <rect x="35" y="45" width="30" height="15" fill="#C4956A"/>

  <!-- Roof detail -->
  <path d="M28 55 L50 32 L72 55" fill="none" stroke="#8B6914" stroke-width="2.5" stroke-linecap="round" stroke-linejoin="round"/>

  <!-- Door -->
  <rect x="45" y="48" width="10" height="12" fill="#F5F0E8" rx="1"/>

  <!-- Windows -->
  <rect x="37" y="48" width="6" height="6" fill="#F5F0E8" rx="0.5"/>
  <rect x="57" y="48" width="6" height="6" fill="#F5F0E8" rx="0.5"/>

  <!-- Sun/Pearl (representing Pearl Beach) -->
  <circle cx="75" cy="25" r="10" fill="#C4956A" opacity="0.9"/>
  <circle cx="75" cy="25" r="7" fill="#D4A574"/>
</svg>
